<svg height="800px" width="800px" version="1.1" id="Capa_1" xmlns="http://www.w3.org/2000/svg" xmlns:xlink="http://www.w3.org/1999/xlink"
     viewBox="0 0 297.502 297.502" xml:space="preserve">
<g>
	<g id="XMLID_27_">
		<g>
			<path style="fill:#E98547;" d="M176.595,108.662c0.94,0.93,1.45,2.18,1.45,3.51c0,1.33-0.52,2.59-1.47,3.54
				c-0.95,0.95-2.21,1.47-3.55,1.47c-1.33,0-2.57-0.51-3.51-1.45c-0.93-0.93-1.44-2.18-1.44-3.51c0-1.33,0.52-2.59,1.47-3.54
				c0.95-0.95,2.21-1.47,3.55-1.47C174.415,107.212,175.665,107.722,176.595,108.662z"/>
            <path style="fill:#DEC978;" d="M199.145,121.232c2.25,2.28,3.48,5.3,3.46,8.52c-0.03,3.26-1.33,6.33-3.68,8.64
				c-2.32,2.29-5.38,3.55-8.63,3.55c-3.26,0-6.31-1.27-8.58-3.57c-0.84-0.85-1.55-1.83-2.11-2.9c-0.72-1.39-1.84-2.49-3.17-3.21
				c4.15-0.69,7.98-2.63,11.02-5.67c2.97-2.98,4.9-6.71,5.63-10.77c0.71,1.36,1.8,2.51,3.2,3.26
				C197.345,119.652,198.305,120.372,199.145,121.232z"/>
            <path style="fill:#DEC978;" d="M169.235,132.212c-1.34,0.69-2.47,1.76-3.22,3.14c-0.58,1.07-1.32,2.05-2.19,2.91
				c-2.32,2.29-5.39,3.55-8.64,3.55c-3.26,0-6.3-1.27-8.58-3.58c-2.25-2.28-3.48-5.3-3.45-8.52c0.02-3.26,1.32-6.33,3.68-8.65
				c0.87-0.86,1.86-1.58,2.94-2.15c1.41-0.73,2.51-1.87,3.22-3.22c0.7,4.11,2.63,7.91,5.65,10.92
				C161.575,129.542,165.245,131.462,169.235,132.212z"/>
            <path style="fill:#DEC978;" d="M166.505,88.902c0.72,1.4,1.84,2.5,3.18,3.23c-4.15,0.69-7.98,2.64-11.02,5.67
				c-2.97,2.98-4.9,6.72-5.64,10.77c-0.7-1.36-1.79-2.51-3.19-3.26c-1.05-0.56-2.01-1.28-2.86-2.14c-2.26-2.29-3.49-5.33-3.45-8.56
				c0.03-3.26,1.33-6.31,3.66-8.61c2.32-2.28,5.39-3.54,8.64-3.54c3.26,0,6.31,1.27,8.59,3.58
				C165.265,86.902,165.965,87.862,166.505,88.902z"/>
            <path style="fill:#DEC978;" d="M199.515,86.162c2.26,2.29,3.48,5.33,3.45,8.57c-0.03,3.25-1.34,6.3-3.67,8.6
				c-0.87,0.86-1.87,1.59-2.96,2.16c-1.4,0.73-2.5,1.87-3.21,3.22c-0.7-4.12-2.63-7.92-5.65-10.93c-2.93-2.93-6.6-4.85-10.58-5.59
				c1.33-0.7,2.46-1.77,3.21-3.14c0.58-1.07,1.32-2.05,2.2-2.92c2.32-2.28,5.38-3.54,8.63-3.54
				C194.195,82.592,197.235,83.862,199.515,86.162z"/>
            <path style="fill:#7AC1A3;" d="M175.485,22.362c37.64,20.4,67.01,49.77,87.41,87.41c-27.58,42.71-49.55,64.68-92.24,92.25
				c-0.01,0.01-0.02,0.01-0.03,0.01c-37.63-20.41-67-49.77-87.4-87.4c0-0.01,0-0.02,0-0.03
				C110.805,71.912,132.785,49.942,175.485,22.362z M218.345,94.892c0.08-7.37-2.72-14.3-7.88-19.53
				c-5.19-5.26-12.12-8.16-19.53-8.16c-6.45,0-12.58,2.2-17.51,6.25c-4.92-4.13-11.08-6.38-17.6-6.38c-7.31,0-14.21,2.83-19.43,7.97
				c-5.25,5.17-8.18,12.06-8.26,19.41c-0.06,6.48,2.1,12.63,6.13,17.57c-4.16,4.92-6.45,11.08-6.5,17.59
				c-0.05,7.33,2.75,14.23,7.89,19.43c5.19,5.25,12.12,8.15,19.53,8.15c6.45,0,12.57-2.2,17.51-6.24c4.92,4.13,11.08,6.37,17.6,6.37
				c7.31,0,14.21-2.83,19.43-7.96c5.27-5.2,8.21-12.12,8.26-19.5c0.05-6.45-2.11-12.57-6.12-17.48
				C215.995,107.482,218.285,101.362,218.345,94.892z"/>
            <path style="fill:#7AC1A3;" d="M154.195,216.322l-3.02,3.02c-36.51-20.12-65.15-48.75-85.26-85.26l3.02-3.02
				C89.775,166.882,118.375,195.482,154.195,216.322z"/>
            <path d="M283.885,105.612c1.65,3.23,1.47,7.09-0.47,10.15c-31.51,49.8-56.35,74.75-105.82,106.18l-17.27,17.27
				c-1.97,1.97-4.6,3-7.26,3c-1.58,0-3.18-0.37-4.66-1.12c-45.8-23.37-80.87-58.45-104.24-104.24c-2.02-3.96-1.26-8.78,1.88-11.92
				l17.28-17.27c31.42-49.47,56.38-74.31,106.17-105.82c3.06-1.94,6.92-2.12,10.15-0.47
				C225.435,24.742,260.515,59.822,283.885,105.612z M262.895,109.772c-20.4-37.64-49.77-67.01-87.41-87.41
				c-42.7,27.58-64.68,49.55-92.26,92.24c0,0.01,0,0.02,0,0.03c20.4,37.63,49.77,66.99,87.4,87.4c0.01,0,0.02,0,0.03-0.01
				C213.345,174.452,235.315,152.482,262.895,109.772z M151.175,219.342l3.02-3.02c-35.82-20.84-64.42-49.44-85.26-85.26l-3.02,3.02
				C86.025,170.592,114.665,199.222,151.175,219.342z"/>
            <path d="M210.465,75.362c5.16,5.23,7.96,12.16,7.88,19.53c-0.06,6.47-2.35,12.59-6.48,17.49c4.01,4.91,6.17,11.03,6.12,17.48
				c-0.05,7.38-2.99,14.3-8.26,19.5c-5.22,5.13-12.12,7.96-19.43,7.96c-6.52,0-12.68-2.24-17.6-6.37
				c-4.94,4.04-11.06,6.24-17.51,6.24c-7.41,0-14.34-2.9-19.53-8.15c-5.14-5.2-7.94-12.1-7.89-19.43c0.05-6.51,2.34-12.67,6.5-17.59
				c-4.03-4.94-6.19-11.09-6.13-17.57c0.08-7.35,3.01-14.24,8.26-19.41c5.22-5.14,12.12-7.97,19.43-7.97
				c6.52,0,12.68,2.25,17.6,6.38c4.93-4.05,11.06-6.25,17.51-6.25C198.345,67.202,205.275,70.102,210.465,75.362z M202.965,94.732
				c0.03-3.24-1.19-6.28-3.45-8.57c-2.28-2.3-5.32-3.57-8.58-3.57c-3.25,0-6.31,1.26-8.63,3.54c-0.88,0.87-1.62,1.85-2.2,2.92
				c-0.75,1.37-1.88,2.44-3.21,3.14c3.98,0.74,7.65,2.66,10.58,5.59c3.02,3.01,4.95,6.81,5.65,10.93c0.71-1.35,1.81-2.49,3.21-3.22
				c1.09-0.57,2.09-1.3,2.96-2.16C201.625,101.032,202.935,97.982,202.965,94.732z M202.605,129.752c0.02-3.22-1.21-6.24-3.46-8.52
				c-0.84-0.86-1.8-1.58-2.86-2.15c-1.4-0.75-2.49-1.9-3.2-3.26c-0.73,4.06-2.66,7.79-5.63,10.77c-3.04,3.04-6.87,4.98-11.02,5.67
				c1.33,0.72,2.45,1.82,3.17,3.21c0.56,1.07,1.27,2.05,2.11,2.9c2.27,2.3,5.32,3.57,8.58,3.57c3.25,0,6.31-1.26,8.63-3.55
				C201.275,136.082,202.575,133.012,202.605,129.752z M178.045,112.172c0-1.33-0.51-2.58-1.45-3.51c-0.93-0.94-2.18-1.45-3.5-1.45
				c-1.34,0-2.6,0.52-3.55,1.47c-0.95,0.95-1.47,2.21-1.47,3.54c0,1.33,0.51,2.58,1.44,3.51c0.94,0.94,2.18,1.45,3.51,1.45
				c1.34,0,2.6-0.52,3.55-1.47C177.525,114.762,178.045,113.502,178.045,112.172z M169.685,92.132c-1.34-0.73-2.46-1.83-3.18-3.23
				c-0.54-1.04-1.24-2-2.09-2.86c-2.28-2.31-5.33-3.58-8.59-3.58c-3.25,0-6.32,1.26-8.64,3.54c-2.33,2.3-3.63,5.35-3.66,8.61
				c-0.04,3.23,1.19,6.27,3.45,8.56c0.85,0.86,1.81,1.58,2.86,2.14c1.4,0.75,2.49,1.9,3.19,3.26c0.74-4.05,2.67-7.79,5.64-10.77
				C161.705,94.772,165.535,92.822,169.685,92.132z M166.015,135.352c0.75-1.38,1.88-2.45,3.22-3.14c-3.99-0.75-7.66-2.67-10.59-5.6
				c-3.02-3.01-4.95-6.81-5.65-10.92c-0.71,1.35-1.81,2.49-3.22,3.22c-1.08,0.57-2.07,1.29-2.94,2.15
				c-2.36,2.32-3.66,5.39-3.68,8.65c-0.03,3.22,1.2,6.24,3.45,8.52c2.28,2.31,5.32,3.58,8.58,3.58c3.25,0,6.32-1.26,8.64-3.55
				C164.695,137.402,165.435,136.422,166.015,135.352z"/>
            <path d="M114.615,237.772c1.91,1.91,3,4.56,3,7.26c0,2.69-1.09,5.34-3,7.25c-1.91,1.9-4.56,3-7.25,3c-2.7,0-5.35-1.1-7.25-3
				c-1.91-1.91-3.01-4.56-3.01-7.25c0-2.7,1.1-5.35,3.01-7.26c1.9-1.9,4.55-3,7.25-3
				C110.055,234.772,112.705,235.872,114.615,237.772z"/>
            <path d="M107.795,279.742c1.91,1.91,3,4.56,3,7.25c0,2.7-1.09,5.35-3,7.25c-1.91,1.91-4.55,3.01-7.25,3.01
				c-2.7,0-5.35-1.1-7.26-3.01c-1.9-1.9-3-4.55-3-7.25c0-2.69,1.1-5.34,3-7.25c1.91-1.91,4.56-3,7.26-3
				C103.245,276.742,105.885,277.832,107.795,279.742z"/>
            <path d="M80.765,254.702c1.91,1.9,3.01,4.55,3.01,7.25c0,2.7-1.1,5.34-3.01,7.25c-1.91,1.91-4.55,3-7.25,3s-5.34-1.09-7.25-3
				c-1.91-1.91-3.01-4.55-3.01-7.25c0-2.7,1.1-5.35,3.01-7.25c1.91-1.92,4.55-3.01,7.25-3.01S78.855,252.782,80.765,254.702z"/>
            <path d="M63.845,203.932c1.91,1.91,3,4.55,3,7.25c0,2.7-1.09,5.33-3,7.25c-1.91,1.91-4.56,3.01-7.25,3.01
				c-2.7,0-5.35-1.1-7.25-3.01c-1.91-1.91-3.01-4.55-3.01-7.25c0-2.7,1.1-5.34,3.01-7.25c1.9-1.91,4.55-3.01,7.25-3.01
				C59.285,200.922,61.935,202.022,63.845,203.932z"/>
            <path d="M46.925,153.162c1.9,1.91,3,4.55,3,7.25s-1.1,5.34-3,7.25c-1.91,1.91-4.56,3.01-7.26,3.01c-2.69,0-5.34-1.1-7.25-3.01
				c-1.9-1.91-3-4.55-3-7.25s1.1-5.34,3-7.25c1.91-1.91,4.56-3.01,7.25-3.01C42.365,150.152,45.015,151.252,46.925,153.162z"/>
            <path d="M46.925,237.772c1.9,1.91,3,4.56,3,7.26c0,2.69-1.1,5.34-3,7.25c-1.91,1.9-4.56,3-7.26,3c-2.69,0-5.34-1.1-7.25-3
				c-1.9-1.91-3-4.56-3-7.25c0-2.7,1.1-5.35,3-7.26c1.91-1.9,4.56-3,7.25-3C42.365,234.772,45.015,235.872,46.925,237.772z"/>
            <path d="M40.095,279.742c1.92,1.91,3.01,4.56,3.01,7.25c0,2.7-1.09,5.35-3.01,7.25c-1.9,1.91-4.54,3.01-7.25,3.01
				c-2.69,0-5.34-1.1-7.25-3.01c-1.91-1.9-3-4.55-3-7.25c0-2.69,1.09-5.34,3-7.25s4.56-3,7.25-3
				C35.555,276.742,38.195,277.832,40.095,279.742z"/>
            <path d="M29.995,187.002c1.91,1.91,3.01,4.55,3.01,7.26c0,2.69-1.1,5.34-3.01,7.25c-1.91,1.9-4.55,3-7.25,3s-5.34-1.1-7.25-3
				c-1.91-1.91-3-4.56-3-7.25c0-2.71,1.09-5.35,3-7.26c1.91-1.9,4.54-3,7.25-3S28.085,185.102,29.995,187.002z"/>
		</g>
        <g>
		</g>
	</g>
</g>
</svg>