<svg height="800px" width="800px" version="1.1" id="Layer_1" xmlns="http://www.w3.org/2000/svg" xmlns:xlink="http://www.w3.org/1999/xlink"
     viewBox="0 0 512 512" xml:space="preserve">
<path style="fill:#BBDCE3;" d="M445.941,164.711h-18.197C410.076,85.491,340.026,27.74,256.23,27.74S102.385,85.491,84.716,164.711
	H66.059c-28.385,0-51.396,23.011-51.396,51.396s23.011,51.396,51.396,51.396h379.881c28.385,0,51.396-23.011,51.396-51.396
	S474.326,164.711,445.941,164.711z"/>
    <polygon style="fill:#FECC85;" points="70.991,267.503 108.593,484.259 403.407,484.259 441.009,267.503 "/>
    <path style="fill:#DE5E88;" d="M292.591,312.323c-20.502,0-36.588,22.86-36.588,22.86s-15.174-22.86-36.597-22.86
	c-20.838,0-37.855,17.187-38.968,37.995c-0.628,11.756,3.163,20.703,8.502,28.806c10.67,16.19,57.317,55.165,67.131,55.165
	c10.016,0,56.248-38.833,66.989-55.165c5.351-8.14,9.129-17.05,8.5-28.806C330.447,329.51,313.43,312.323,292.591,312.323"/>
    <path d="M512,216.107c0-36.425-29.634-66.059-66.059-66.059h-6.826c-10.798-37.211-32.918-70.595-63.128-94.946
	c-33.62-27.099-76.151-42.023-119.758-42.023s-86.136,14.924-119.756,42.023c-30.209,24.353-52.329,57.735-63.127,94.946h-7.286
	C29.634,150.048,0,179.682,0,216.107c0,33.894,25.664,61.894,58.577,65.624l35.569,205.033c1.219,7.027,7.315,12.157,14.448,12.157
	h294.815c7.131,0,13.228-5.131,14.448-12.157l35.569-205.033C486.336,278.001,512,250.001,512,216.107z M391.068,469.595H120.932
	L88.417,282.167h335.167L391.068,469.595z M445.941,252.84h-4.931H70.991h-4.931c-20.256,0-36.733-16.479-36.733-36.733
	s16.477-36.733,36.733-36.733h18.658c0.402,0,0.799-0.019,1.194-0.051h219.786c8.097,0,14.663-6.566,14.663-14.663
	s-6.566-14.663-14.663-14.663H104.136c22.212-64.181,82.331-107.592,152.093-107.592c76.079,0,140.723,51.606,157.203,125.498
	c1.496,6.704,7.443,11.471,14.311,11.471h18.197c20.254,0,36.733,16.477,36.733,36.733S466.196,252.84,445.941,252.84z"/>
    <path d="M213.479,424.075c30.067,24.878,38.526,24.878,42.592,24.878c4.113,0,12.671,0,42.589-24.838
	c13.165-10.93,29.706-26.37,36.651-36.934c5.123-7.791,11.826-20.172,10.89-37.643c-1.557-29.09-25.106-51.877-53.612-51.877
	c-15.156,0-27.8,8.033-36.413,15.694c-8.499-7.695-21.102-15.694-36.771-15.694c-28.504,0-52.053,22.787-53.61,51.879
	c-0.936,17.508,5.774,29.876,10.902,37.657C183.588,397.65,200.217,413.101,213.479,424.075z M195.08,351.102
	c0.713-13.297,11.625-24.117,24.326-24.117c10.918,0,21.331,11.816,24.379,16.306c2.666,4.016,7.154,6.44,11.974,6.525
	c4.846,0.062,9.393-2.229,12.2-6.145c3.101-4.329,14.283-16.685,24.631-16.685c12.701,0,23.614,10.82,24.328,24.118
	c0.375,7.008-1.395,12.794-6.11,19.964c-8.354,12.703-42.472,41.51-54.694,47.832c-12.187-6.395-46.861-35.601-54.93-47.845
	C196.475,363.908,194.706,358.127,195.08,351.102z"/>
    <path d="M349.448,179.326c-0.952,0-1.921-0.103-2.858-0.293c-0.94-0.191-1.864-0.469-2.758-0.836
	c-0.88-0.367-1.73-0.821-2.522-1.349c-0.806-0.526-1.554-1.142-2.229-1.817c-0.674-0.676-1.29-1.424-1.818-2.23
	c-0.528-0.792-0.982-1.657-1.349-2.535c-0.367-0.881-0.66-1.804-0.836-2.742c-0.191-0.94-0.293-1.908-0.293-2.859
	c0-0.953,0.103-1.922,0.293-2.874c0.176-0.924,0.469-1.848,0.836-2.742c0.367-0.88,0.806-1.73,1.334-2.522
	c0.543-0.808,1.158-1.556,1.833-2.23c0.675-0.675,1.422-1.29,2.229-1.833c0.792-0.526,1.642-0.982,2.522-1.349
	c0.894-0.367,1.818-0.644,2.758-0.836c1.875-0.381,3.826-0.381,5.717,0c0.938,0.192,1.864,0.469,2.742,0.836
	c0.894,0.367,1.745,0.823,2.537,1.349c0.806,0.543,1.554,1.158,2.229,1.833c0.675,0.675,1.29,1.422,1.818,2.23
	c0.526,0.792,0.982,1.642,1.349,2.522c0.367,0.894,0.644,1.818,0.836,2.742c0.191,0.952,0.292,1.921,0.292,2.874
	c0,0.952-0.101,1.921-0.292,2.859c-0.192,0.938-0.469,1.862-0.836,2.742c-0.367,0.88-0.823,1.743-1.349,2.535
	c-0.528,0.806-1.144,1.554-1.818,2.23c-0.675,0.674-1.422,1.29-2.229,1.817c-0.792,0.528-1.642,0.982-2.537,1.349
	c-0.88,0.367-1.804,0.645-2.742,0.836C351.368,179.223,350.402,179.326,349.448,179.326z"/>
</svg>