<svg version="1.1" id="Layer_1" xmlns="http://www.w3.org/2000/svg" xmlns:xlink="http://www.w3.org/1999/xlink"
     viewBox="0 0 512 512" xml:space="preserve">
<circle style="fill:#C60024;" cx="428.542" cy="24.68" r="17.06"/>
    <g>
	<path style="fill:#D2E7F8;" d="M309.633,502.644l-9.28-6.986c-23.567-17.74-53.383-17.74-76.95,0l-9.28,6.986
		c-0.662,0.499-0.371,1.738,0.408,1.738h94.695C310.005,504.382,310.296,503.142,309.633,502.644z"/>
        <path style="fill:#D2E7F8;" d="M81.096,96.556l31.269,34.85c21.476,1.05,22.891,10.055,47.018,10.055
		c25.621,0,25.621-10.158,51.243-10.158c25.622,0,25.622,10.158,51.245,10.158c25.621,0,25.621-10.158,51.244-10.158
		c25.625,0,25.625,10.158,51.251,10.158c24.131,0,25.546-9.005,47.026-10.055l31.269-34.85
		C442.659,96.556,81.096,96.556,81.096,96.556z"/>
</g>
    <circle style="fill:#FF9911;" cx="81.091" cy="96.561" r="48.328"/>
    <path style="fill:#FED322;" d="M376.323,140.535c-3.323,0.572-7.194,0.926-11.958,0.926c-25.625,0-25.625-10.158-51.251-10.158
	c-25.621,0-25.621,10.158-51.244,10.158s-25.622-10.158-51.245-10.158c-25.621,0-25.621,10.158-51.243,10.158
	c-4.76,0-8.628-0.355-11.948-0.925c-13.509-2.322-17.83-8.287-35.069-9.13l149.512,166.629l149.512-166.629
	C394.152,132.249,389.828,138.212,376.323,140.535z"/>
    <path style="fill:#EEBF00;" d="M261.878,268.081L147.435,140.536c-13.509-2.322-17.83-8.287-35.069-9.13l149.512,166.629
	L411.39,131.406c-17.239,0.843-21.563,6.806-35.068,9.129L261.878,268.081z"/>
    <g>
	<polygon style="fill:#D80029;" points="68.145,257.487 49.728,239.07 60.504,228.296 68.145,235.939 75.708,228.375
		86.483,239.149 	"/>
        <polygon style="fill:#D80029;" points="468.513,331.761 450.098,313.344 460.872,302.57 468.513,310.213 476.079,302.649
		486.851,313.424 	"/>
        <polygon style="fill:#D80029;" points="191.985,407.482 173.568,389.067 184.344,378.292 191.985,385.935 199.549,378.37
		210.324,389.145 	"/>
</g>
    <g>
	<rect x="191.944" y="152.267" style="fill:#FFFFFF;" width="14.193" height="15.237"/>
        <rect x="255.37" y="157.488" style="fill:#FFFFFF;" width="14.193" height="15.237"/>
        <rect x="280.927" y="183.411" style="fill:#FFFFFF;" width="14.193" height="15.237"/>
        <rect x="219.248" y="212.341" style="fill:#FFFFFF;" width="14.194" height="15.237"/>
</g>
    <path d="M422.784,48.673c1.849,0.444,3.776,0.686,5.76,0.686c13.608,0,24.679-11.07,24.679-24.679S442.151,0,428.544,0
	c-13.608,0-24.68,11.071-24.68,24.68c0,6.11,2.237,11.704,5.928,16.018l-31.696,48.241H136.511
	c-3.729-27.257-27.151-48.329-55.415-48.329c-30.85,0-55.947,25.098-55.947,55.948s25.097,55.947,55.947,55.947
	c11.601,0,22.388-3.551,31.333-9.621l141.831,158.069v174.288c-12.401,1.387-24.579,6.156-35.439,14.33l-9.276,6.983
	c-0.085,0.064-0.154,0.143-0.238,0.21h-31.111V512h36.334h94.696h36.334v-15.237h-31.112c-0.081-0.066-0.148-0.143-0.233-0.206
	l-9.281-6.987c-10.86-8.174-23.037-12.942-35.438-14.33V300.95l153.998-171.627l36.238-40.386h-63.404L422.784,48.673z
	 M428.544,15.237c5.206,0,9.442,4.236,9.442,9.443c0,5.206-4.236,9.442-9.442,9.442c-5.207,0-9.443-4.236-9.443-9.442
	C419.101,19.473,423.337,15.237,428.544,15.237z M47.442,73.677l15.261,15.261H41.111C42.17,83.369,44.36,78.198,47.442,73.677z
	 M41.111,104.175h21.592l-15.26,15.26C44.36,114.915,42.17,109.743,41.111,104.175z M73.477,136.542
	c-5.569-1.058-10.74-3.249-15.26-6.331l15.26-15.26V136.542z M73.477,78.162l-15.26-15.259c4.52-3.083,9.692-5.272,15.26-6.331
	V78.162z M88.714,56.571c5.569,1.058,10.74,3.248,15.261,6.331l-15.261,15.26V56.571z M88.714,136.542v-20.088l9.802,10.925
	l3.61,4.024C98.064,133.862,93.537,135.624,88.714,136.542z M114.75,119.435l-15.26-15.26h21.592
	C120.022,109.743,117.833,114.914,114.75,119.435z M99.489,88.939l15.261-15.261c3.083,4.52,5.272,9.693,6.331,15.261H99.489z
	 M134.059,128.32c-0.241-0.092-0.484-0.185-0.728-0.277c-0.146-0.055-0.295-0.11-0.442-0.165c-0.232-0.086-0.465-0.172-0.701-0.257
	c-0.156-0.056-0.314-0.113-0.471-0.169c-0.235-0.083-0.472-0.166-0.712-0.248c-0.164-0.056-0.328-0.113-0.494-0.168
	c-0.243-0.081-0.49-0.162-0.738-0.243c-0.168-0.054-0.334-0.108-0.505-0.162c-0.26-0.082-0.526-0.162-0.793-0.242
	c-0.023-0.007-0.047-0.014-0.07-0.021c4.174-6.6,7.003-14.124,8.107-22.194h231.575l-18.385,27.981
	c-2.941-0.79-5.468-1.792-8.155-2.856c-6.639-2.633-14.165-5.615-28.433-5.615c-14.266,0-21.79,2.983-28.428,5.615
	c-6.149,2.437-11.458,4.543-22.815,4.543s-16.665-2.105-22.815-4.543c-6.638-2.633-14.163-5.615-28.43-5.615
	c-14.266,0-21.79,2.983-28.428,5.615c-6.149,2.437-11.458,4.543-22.815,4.543c-11.357,0-16.668-2.105-22.82-4.543
	c-0.348-0.138-0.7-0.277-1.054-0.416c-0.08-0.031-0.163-0.064-0.244-0.095c-0.275-0.108-0.552-0.216-0.832-0.325
	C134.31,128.415,134.184,128.367,134.059,128.32z M288.052,496.763h-52.348C252.409,487.668,271.343,487.666,288.052,496.763z
	 M253.987,277.833L134.738,144.932c0.021,0.008,0.044,0.015,0.065,0.023c0.029,0.011,0.06,0.021,0.09,0.033
	c0.379,0.139,0.764,0.277,1.154,0.414c0.131,0.046,0.265,0.091,0.398,0.137c0.301,0.104,0.604,0.206,0.913,0.308
	c0.158,0.053,0.318,0.105,0.478,0.156c0.306,0.099,0.617,0.195,0.931,0.291c0.156,0.048,0.311,0.095,0.47,0.143
	c0.415,0.123,0.838,0.243,1.27,0.361c0.059,0.016,0.116,0.033,0.175,0.049c0.487,0.131,0.987,0.257,1.497,0.381
	c0.159,0.039,0.325,0.075,0.488,0.113c0.363,0.084,0.73,0.168,1.106,0.247c0.197,0.042,0.398,0.082,0.599,0.123
	c0.364,0.073,0.733,0.144,1.11,0.213c0.205,0.038,0.408,0.075,0.617,0.111c0.43,0.074,0.87,0.143,1.316,0.211
	c0.161,0.024,0.317,0.051,0.481,0.074c0.61,0.087,1.237,0.169,1.881,0.243c0.146,0.016,0.3,0.03,0.447,0.047
	c0.507,0.055,1.021,0.107,1.549,0.152c0.236,0.02,0.478,0.039,0.719,0.057c0.465,0.037,0.939,0.069,1.422,0.098
	c0.259,0.015,0.52,0.03,0.784,0.044c0.511,0.025,1.034,0.046,1.564,0.063c0.241,0.008,0.476,0.017,0.722,0.023
	c0.779,0.019,1.573,0.031,2.396,0.031c12.483,0,19.805-2.284,25.887-4.619c0.868-0.333,1.713-0.668,2.543-0.997
	c6.148-2.437,11.457-4.543,22.813-4.543c1.419,0,2.745,0.033,3.989,0.095c8.708,0.436,13.446,2.315,18.827,4.448
	c4.978,1.974,10.457,4.145,18.903,5.107c2.816,0.321,5.961,0.507,9.527,0.507c12.483,0,19.805-2.284,25.887-4.619
	c0.869-0.333,1.713-0.668,2.543-0.997c6.148-2.437,11.457-4.543,22.813-4.543c11.359,0,16.669,2.105,22.819,4.544
	c1.61,0.638,3.275,1.296,5.072,1.928L253.987,277.833z M278.923,267.629l78.084-118.843c2.241,0.188,4.681,0.294,7.357,0.294
	c0.822,0,1.616-0.012,2.394-0.031c0.248-0.006,0.487-0.016,0.73-0.024c0.527-0.017,1.047-0.038,1.555-0.063
	c0.266-0.013,0.529-0.028,0.791-0.044c0.48-0.028,0.952-0.062,1.416-0.098c0.243-0.019,0.487-0.037,0.724-0.058
	c0.522-0.046,1.03-0.096,1.531-0.151c0.154-0.016,0.315-0.031,0.467-0.049c0.642-0.074,1.267-0.155,1.875-0.242
	c0.169-0.024,0.329-0.052,0.495-0.076c0.441-0.067,0.876-0.135,1.299-0.208c0.213-0.037,0.423-0.075,0.632-0.114
	c0.37-0.067,0.733-0.137,1.091-0.209c0.208-0.042,0.414-0.084,0.619-0.127c0.365-0.077,0.722-0.158,1.076-0.24
	c0.172-0.04,0.347-0.078,0.517-0.119c0.506-0.122,1.003-0.248,1.485-0.378c0.072-0.019,0.141-0.041,0.213-0.06
	c0.417-0.114,0.828-0.231,1.229-0.349c0.17-0.05,0.335-0.102,0.503-0.152c0.299-0.091,0.595-0.183,0.887-0.276
	c0.178-0.057,0.352-0.114,0.527-0.172c0.282-0.093,0.561-0.187,0.836-0.282c0.159-0.055,0.319-0.109,0.476-0.165
	c0.326-0.115,0.646-0.23,0.964-0.346c0.094-0.035,0.191-0.068,0.284-0.103c0.012-0.005,0.025-0.009,0.039-0.014L278.923,267.629z
	 M425.589,104.175l-17.806,19.844c-0.146,0.013-0.285,0.03-0.43,0.044c-0.267,0.025-0.531,0.053-0.793,0.081
	c-0.348,0.038-0.693,0.077-1.032,0.119c-0.247,0.03-0.492,0.061-0.733,0.093c-0.343,0.046-0.68,0.094-1.013,0.144
	c-0.224,0.034-0.451,0.066-0.671,0.102c-0.345,0.055-0.683,0.114-1.017,0.173c-0.195,0.035-0.393,0.068-0.584,0.104
	c-0.376,0.07-0.742,0.144-1.104,0.218c-0.14,0.029-0.284,0.056-0.423,0.085c-0.502,0.107-0.992,0.217-1.472,0.332
	c-0.002,0-0.004,0.001-0.005,0.001c-0.474,0.114-0.938,0.232-1.392,0.352c-0.142,0.038-0.278,0.077-0.418,0.116
	c-0.311,0.085-0.621,0.171-0.922,0.258c-0.165,0.048-0.325,0.096-0.487,0.145c-0.269,0.08-0.537,0.162-0.799,0.244
	c-0.17,0.054-0.337,0.108-0.505,0.162c-0.248,0.08-0.494,0.16-0.736,0.242c-0.168,0.057-0.334,0.113-0.5,0.17
	c-0.236,0.081-0.469,0.163-0.7,0.244c-0.164,0.058-0.327,0.116-0.488,0.174c-0.229,0.082-0.454,0.166-0.679,0.249
	c-0.155,0.058-0.312,0.116-0.466,0.173c-0.231,0.086-0.458,0.174-0.685,0.26c-0.142,0.055-0.285,0.109-0.426,0.164
	c-0.247,0.095-0.491,0.191-0.734,0.286c-0.115,0.045-0.232,0.09-0.346,0.135c-0.347,0.137-0.693,0.273-1.034,0.409
	c-5.682,2.251-10.661,4.216-20.337,4.502l19.466-29.628h39.272V104.175z"/>
</svg>