<svg height="800px" width="800px" version="1.1" id="Layer_1" xmlns="http://www.w3.org/2000/svg" xmlns:xlink="http://www.w3.org/1999/xlink"
     viewBox="0 0 511.993 511.993" xml:space="preserve">
<path style="fill:#656D78;" d="M21.877,269.116H21.33v-26.218h4.039h10.258l6.406-8.016c24.015-30.046,47.671-51.858,72.319-66.718
	c28.374-17.093,58.608-25.405,92.427-25.405c29.523,0,62.406,6.562,97.732,19.5l8.281,3.015l8-3.687
	c0.141-0.062,14.438-6.625,33.547-13.062c24.218-8.156,45.17-12.469,60.561-12.469c9.062,0,14.219,1.5,16.969,2.75
	c7.219,3.312,14.156,6.969,20.641,10.719v-21.297h5.655c-5.546-3.062-11.374-6.047-17.405-8.797
	c-7.266-3.343-16.172-4.702-25.859-4.702c-43.515,0-103.045,27.499-103.045,27.499c-39.326-14.406-74.053-20.797-105.076-20.797
	c-79.998,0-135.364,42.53-181.41,100.123H0.003v68.882h0.046c-0.016,0.672-0.046,1.328-0.046,2
	C-0.606,386.34,108.61,436.87,234.162,436.87c97.303,0,204.411-30.342,277.831-94.372v-68.89h-21.328L21.877,269.116z"/>
    <g>
	<path style="fill:#434A54;" d="M32.002,371.044c6.32,6.609,13.461,12.719,21.328,18.344v-90.842H32.002V371.044z"/>
        <path style="fill:#434A54;" d="M74.665,402.559c6.766,3.594,13.891,6.921,21.335,9.968v-85.982H74.665V402.559z"/>
        <path style="fill:#434A54;" d="M117.328,420.23c6.914,2.188,14.031,4.156,21.335,5.922v-83.498h-21.335
		C117.328,342.654,117.328,420.23,117.328,420.23z"/>
        <path style="fill:#434A54;" d="M159.999,430.59c6.984,1.25,14.101,2.296,21.328,3.171v-81.889h-21.328V430.59z"/>
        <path style="fill:#434A54;" d="M202.663,435.792c7.039,0.484,14.156,0.812,21.335,0.969V355.2h-21.335L202.663,435.792
		L202.663,435.792z"/>
        <path style="fill:#434A54;" d="M266.662,435.761V357.2h-21.336v79.529C252.403,436.573,259.521,436.245,266.662,435.761z"/>
        <path style="fill:#434A54;" d="M309.324,430.965v-79.093h-21.327v81.967C295.106,433.042,302.215,432.074,309.324,430.965z"/>
        <path style="fill:#434A54;" d="M351.996,422.308v-79.654h-21.328v84.482C337.808,425.684,344.918,424.074,351.996,422.308z"/>
        <path style="fill:#434A54;" d="M394.666,409.387v-76.842h-21.343v83.873C380.511,414.246,387.62,411.918,394.666,409.387z"/>
        <path style="fill:#434A54;" d="M437.322,391.434v-82.561h-21.328v92.248C423.213,398.091,430.338,394.872,437.322,391.434z"/>
        <path style="fill:#434A54;" d="M479.993,366.95v-71.998h-21.328v85.201C465.946,375.981,473.071,371.591,479.993,366.95z"/>
</g>
    <path style="fill:#E9573F;" d="M490.664,148.697L161.35,245.336l177.255,49.616h113.904v-21.344H338.605
	c51.92-21.226,173.387-39.351,173.387-39.351v-69.03C511.992,165.227,503.883,158.103,490.664,148.697z"/>
    <path style="fill:#FC6E51;" d="M315.574,223.273c-4-27.999,196.418-57.89,196.418-57.89C341.324,20.888,1.088,56.855,0.003,223.555
	c-1.086,166.692,343.853,196.691,511.989,50.054C511.992,273.608,319.574,251.273,315.574,223.273z"/>
    <path style="fill:#E9573F;" d="M322.684,212.883H0.557c-0.336,3.5-0.531,7.047-0.554,10.672s0.125,7.172,0.421,10.656H326.48
	c-6.422-3.516-10.359-7.172-10.906-10.938C315.09,219.82,317.715,216.336,322.684,212.883z"/>
    <path style="fill:#CCD1D9;" d="M213.326,250.211c-15.015,0-29.546-3.453-39.874-9.469c-8.555-5-13.453-11.25-13.453-17.188
	s4.898-12.203,13.453-17.187c10.328-6.031,24.859-9.484,39.874-9.484c15.016,0,29.554,3.453,39.882,9.484
	c8.548,4.983,13.454,11.249,13.454,17.187s-4.906,12.188-13.454,17.188C242.88,246.758,228.342,250.211,213.326,250.211z"/>
    <path style="fill:#E6E9ED;" d="M213.326,186.227c-35.343,0-63.999,16.703-63.999,37.327c0,20.625,28.656,37.327,63.999,37.327
	c35.351,0,63.999-16.702,63.999-37.327C277.325,202.931,248.677,186.227,213.326,186.227z M247.833,231.523
	c-8.75,5.109-21.32,8.031-34.507,8.031c-13.179,0-25.757-2.922-34.499-8.031c-6.109-3.562-8.164-6.969-8.164-7.969
	s2.055-4.406,8.164-7.969c8.742-5.109,21.32-8.03,34.499-8.03c13.188,0,25.757,2.921,34.507,8.03
	c6.109,3.562,8.164,6.969,8.164,7.969S253.942,227.961,247.833,231.523z"/>
</svg>