<svg height="800px" width="800px" version="1.1" id="Layer_1" xmlns="http://www.w3.org/2000/svg" xmlns:xlink="http://www.w3.org/1999/xlink"
     viewBox="0 0 512 512" xml:space="preserve">
<g>
	<path style="fill:#3C1146;" d="M310.01,243.373c-3.926,0-7.853-1.49-10.86-4.471c-6.047-5.999-6.087-15.763-0.091-21.811
		L485.627,28.98c5.999-6.048,15.764-6.085,21.811-0.091c6.047,5.999,6.087,15.763,0.091,21.811L320.961,238.812
		C317.946,241.85,313.978,243.373,310.01,243.373z"/>
    <path style="fill:#3C1146;" d="M217.479,243.373c-3.925,0-7.851-1.49-10.86-4.471c-6.047-5.999-6.087-15.764-0.089-21.811
		L393.097,28.98c5.999-6.048,15.764-6.085,21.811-0.091c6.047,5.999,6.087,15.763,0.091,21.811l-186.57,188.112
		C225.414,241.85,221.448,243.373,217.479,243.373z"/>
</g>
    <path style="fill:#D4A8B4;" d="M431.497,224.826v28.55c0,112.032-91.662,172.846-203.692,172.846l0,0
	c-112.032,0-203.692-60.816-203.692-172.846v-28.55H431.497z"/>
    <g>
	<path style="fill:#3C1146;" d="M227.803,441.644c-60.026,0-114.514-16.953-153.427-47.738
		C31.402,359.908,8.687,311.313,8.687,253.376v-28.55c0-8.516,6.904-15.422,15.422-15.422h407.386
		c8.516,0,15.422,6.906,15.422,15.422v28.55c0,57.937-22.715,106.532-65.689,140.529
		C342.317,424.69,287.829,441.644,227.803,441.644z M39.532,240.247v13.129c0,116.195,101.421,157.424,188.272,157.424
		s188.272-41.229,188.272-157.424v-13.129H39.532z"/>
        <path style="fill:#3C1146;" d="M15.422,179.771C6.904,179.771,0,172.865,0,164.349c0-47.169,38.374-85.545,85.543-85.545
		c4.381,0,8.724,0.332,13.011,0.989c4.377-14.396,12.519-27.468,23.779-37.881c15.841-14.654,36.459-22.722,58.051-22.722
		c17.023,0,33.458,5.026,47.42,14.345c13.963-9.319,30.396-14.345,47.42-14.345c21.592,0,42.208,8.069,58.051,22.722
		c15.744,14.563,25.395,34.32,27.173,55.631c0.709,8.488-5.597,15.943-14.085,16.651c-8.51,0.734-15.943-5.598-16.652-14.085
		c-2.344-28.082-26.277-50.078-54.487-50.078c-13.735,0-26.871,5.117-36.986,14.412c-5.899,5.419-14.967,5.419-20.866,0
		c-10.117-9.293-23.251-14.412-36.986-14.412c-28.21,0-52.144,21.998-54.488,50.078c-0.404,4.83-3.054,9.19-7.157,11.771
		c-4.104,2.58-9.182,3.081-13.71,1.354c-6.235-2.38-12.791-3.586-19.485-3.586c-30.163,0-54.703,24.539-54.703,54.7
		C30.844,172.867,23.939,179.771,15.422,179.771z"/>
        <path style="fill:#3C1146;" d="M440.185,179.771c-8.516,0-15.422-6.906-15.422-15.422c0-12.283-3.974-23.884-11.492-33.55
		c-5.23-6.722-4.017-16.413,2.705-21.641c6.721-5.228,16.412-4.017,21.641,2.705c11.768,15.132,17.99,33.28,17.99,52.486
		C455.607,172.867,448.701,179.771,440.185,179.771z"/>
        <path style="fill:#3C1146;" d="M304.912,492.81H150.694c-8.517,0-15.422-6.906-15.422-15.422c0-8.516,6.904-15.422,15.422-15.422
		h154.218c8.516,0,15.422,6.906,15.422,15.422C320.333,485.904,313.428,492.81,304.912,492.81z"/>
</g>
</svg>