<svg xmlns="http://www.w3.org/2000/svg" xmlns:xlink="http://www.w3.org/1999/xlink" version="1.1" id="Capa_1"  viewBox="0 0 470 470" xml:space="preserve" width="512" height="512">
<g>
	<polygon style="fill:#B4462F;" points="139,7.5 109,7.5 94,87.5 124,117.5 154,87.5  "/>
    <polygon style="fill:#B4462F;" points="149,87.5 129,157.5 179,157.5 179,87.5  "/>
    <rect x="68" y="87.5" style="fill:#EF431D;" width="82" height="70"/>
    <path style="fill:#FEC8BB;" d="M190,167.5c0-16.5-13.5-30-30-30H58c-16.5,0-30,13.5-30,30v265c0,16.5,13.5,30,30,30h102   c16.5,0,30-13.5,30-30L170,300L190,167.5z"/>
    <path style="fill:#FE9F88;" d="M190,137.5h-30c16.5,0,30,13.5,30,30v265c0,16.5-13.5,30-30,30h30c16.5,0,30-13.5,30-30v-265   C220,151,206.5,137.5,190,137.5z"/>
    <polygon style="fill:#B4462F;" points="130,226.15 160,432.5 190,432.5 190,247.5  "/>
    <rect x="58" y="247.5" style="fill:#EF431D;" width="102" height="185"/>
    <path style="fill:#FD7555;" d="M160,167.5l-30,44.325l30,44.325c7.49-4.37,15.56-8.4,30-8.65v-80H160z"/>
    <path style="fill:#FE9F88;" d="M58,167.5v80c32.25,0.58,32.76,19.98,65.99,19.98c18.38,0,26.75-5.93,36.01-11.33V167.5H58z"/>
    <path style="fill:#C1D560;" d="M395.55,179.07L382,47.5h-30l-23.53,160l53.53,255h30c16.5,0,30-13.5,30-30v-195   C442,209.16,422.08,185.26,395.55,179.07z"/>
    <path style="fill:#FDFA7B;" d="M352,207.5v-160h-42l-13.55,131.57C269.92,185.26,250,209.16,250,237.5v195c0,16.5,13.5,30,30,30   h102c16.5,0,30-13.5,30-30L352,207.5z"/>
    <path style="fill:#B4462F;" d="M367,7.5h-30l15,40h30v-25C382,14.25,375.25,7.5,367,7.5z"/>
    <polygon style="fill:#47631C;" points="412,287.5 412,432.5 382,432.5 382,431.5 352,266.15  "/>
    <rect x="280" y="287.5" style="fill:#668A30;" width="102" height="145"/>
    <path style="fill:#A2C352;" d="M382,207.5h-30l30,88.65c7.49-4.37,15.56-8.4,30-8.65v-50C412,220.96,398.54,207.5,382,207.5z"/>
    <path style="fill:#EF431D;" d="M352,22.5v25h-42v-25c0-8.25,6.75-15,15-15h12C345.25,7.5,352,14.25,352,22.5z"/>
    <path style="fill:#C1D560;" d="M382,237.5v58.65c-9.26,5.4-17.63,11.33-36.01,11.33c-33.23,0-33.74-19.4-65.99-19.98v-50   c0-16.54,13.46-30,30-30h42C368.54,207.5,382,220.96,382,237.5z"/>
    <path d="M190,130h-2.5V87.5c0-4.143-3.358-7.5-7.5-7.5h-19.776L146.372,6.118C145.707,2.57,142.609,0,139,0h-30   c-3.609,0-6.707,2.57-7.372,6.118L87.776,80H68c-4.142,0-7.5,3.357-7.5,7.5V130H58c-20.678,0-37.5,16.822-37.5,37.5v265   c0,20.678,16.822,37.5,37.5,37.5h132c20.678,0,37.5-16.822,37.5-37.5v-265C227.5,146.822,210.678,130,190,130z M115.225,15h17.551   l12.188,65h-41.926L115.225,15z M75.5,95h18.568c0.033,0,0.066,0,0.099,0h59.803c0.043,0,18.53,0,18.53,0v35h-97V95z M212.5,432.5   c0,12.406-10.093,22.5-22.5,22.5H58c-12.407,0-22.5-10.094-22.5-22.5v-265c0-12.406,10.093-22.5,22.5-22.5h132   c12.407,0,22.5,10.094,22.5,22.5V432.5z"/>
    <path d="M190,160H58c-4.142,0-7.5,3.357-7.5,7.5v50c0,4.143,3.358,7.5,7.5,7.5s7.5-3.357,7.5-7.5V175h117v42.5   c0,4.143,3.358,7.5,7.5,7.5s7.5-3.357,7.5-7.5v-50C197.5,163.357,194.142,160,190,160z"/>
    <path d="M189.867,240.001c-17.878,0.317-27.484,6.009-35.96,11.03c-8.105,4.802-15.105,8.949-29.918,8.949   s-21.813-4.147-29.919-8.949c-8.472-5.02-18.073-10.708-35.934-11.03c-2.012-0.032-3.955,0.738-5.391,2.148   c-1.436,1.41-2.245,3.338-2.245,5.351v185c0,4.143,3.358,7.5,7.5,7.5h132c4.142,0,7.5-3.357,7.5-7.5v-185   c0-2.012-0.809-3.94-2.244-5.351C193.821,240.739,191.858,239.927,189.867,240.001z M182.5,425h-117V255.589   c9.057,1.316,14.649,4.63,20.923,8.348c8.738,5.177,18.642,11.044,37.565,11.044c18.922,0,28.826-5.867,37.564-11.044   c6.28-3.721,11.876-7.036,20.948-8.351V425z"/>
    <path d="M434.56,195.269c-8.331-10.331-19.576-18.03-32.078-22.052L390.312,55H392c4.142,0,7.5-3.357,7.5-7.5S396.142,40,392,40   h-2.5V22.5C389.5,10.094,379.407,0,367,0h-42c-12.407,0-22.5,10.094-22.5,22.5V40H300c-4.142,0-7.5,3.357-7.5,7.5   s3.358,7.5,7.5,7.5h1.688l-12.17,118.217c-12.502,4.021-23.748,11.721-32.078,22.052c-9.634,11.949-14.94,26.947-14.94,42.231v195   c0,20.678,16.822,37.5,37.5,37.5h132c20.678,0,37.5-16.822,37.5-37.5v-195C449.5,222.216,444.194,207.218,434.56,195.269z    M317.5,22.5c0-4.136,3.364-7.5,7.5-7.5h42c4.136,0,7.5,3.364,7.5,7.5V40h-57V22.5z M434.5,432.5c0,12.406-10.093,22.5-22.5,22.5   H280c-12.407,0-22.5-10.094-22.5-22.5v-195c0-24.131,17.099-45.632,40.658-51.125c3.117-0.727,5.43-3.352,5.757-6.535L316.767,55   h58.465l12.852,124.84c0.328,3.184,2.64,5.809,5.757,6.535c23.559,5.493,40.658,26.994,40.658,51.125V432.5z"/>
    <path d="M382,200h-72c-20.678,0-37.5,16.822-37.5,37.5v19.996c0,4.143,3.358,7.5,7.5,7.5s7.5-3.357,7.5-7.5V237.5   c0-12.406,10.093-22.5,22.5-22.5h72c12.407,0,22.5,10.094,22.5,22.5v19.996c0,4.143,3.358,7.5,7.5,7.5s7.5-3.357,7.5-7.5V237.5   C419.5,216.822,402.678,200,382,200z"/>
    <path d="M411.867,280c-17.877,0.317-27.484,6.009-35.959,11.03c-8.105,4.802-15.106,8.949-29.919,8.949   c-14.814,0-21.814-4.147-29.92-8.95c-8.471-5.02-18.072-10.708-35.932-11.033c-2.007-0.046-3.955,0.737-5.391,2.147   c-1.436,1.41-2.245,3.339-2.245,5.352V432.5c0,4.143,3.358,7.5,7.5,7.5h132c4.142,0,7.5-3.357,7.5-7.5V287.499   c0-2.013-0.809-3.94-2.244-5.351S413.887,279.959,411.867,280z M404.5,425h-117V295.586c9.056,1.317,14.647,4.631,20.922,8.348   c8.738,5.178,18.642,11.046,37.566,11.046c18.923,0,28.827-5.867,37.564-11.044c6.28-3.721,11.877-7.036,20.947-8.351V425z"/>
</g>















</svg>