<svg viewBox="0 0 110 60" xmlns="http://www.w3.org/2000/svg"
     fill="none" stroke="#731536" stroke-width="2" stroke-linecap="round" stroke-linejoin="round">

    <!-- колеса -->
    <circle cx="22" cy="44" r="7"/>
    <circle cx="78" cy="44" r="7"/>

    <!-- корпус (без нижньої лінії під колесами) -->
    <path d="M22 44h40c4 0 6-1 8-7l4-10h9l4 6-3 1 3 6c1 3-1 6-4 6h-7" />

    <!-- сидіння прикріплене до заднього колеса -->
    <path d="M30 26c7-3 22-3 28 0 2 1 3 2 3 4v3c0 2-1 3-3 3H33c-2 0-3-1-3-3v-3c0-2 0-3 0-4z" />

    <!-- з’єднання сидіння з корпусом (плавний вигин) -->
    <path d="M30 26c-3 2-5 6-5 10v2h6" />
    <path d="M33 36c-1 2-3 4-5 6" />

    <!-- спинка -->
    <path d="M57 27c2 1 3 3 3 6v2" />

    <!-- кермо -->
    <path d="M70 6h12m-6 0v10" />

    <!-- передня вилка -->
    <path d="M78 16c4 0 8 4 8 8v3h-8" />
</svg>
